<?xml version="1.0" standalone="no"?>
<!DOCTYPE svg PUBLIC "-//W3C//DTD SVG 20010904//EN"
 "http://www.w3.org/TR/2001/REC-SVG-20010904/DTD/svg10.dtd">
<svg version="1.0" xmlns="http://www.w3.org/2000/svg"
 width="800.000000pt" height="800.000000pt" viewBox="0 0 800.000000 800.000000"
 preserveAspectRatio="xMidYMid meet">

<g transform="translate(0.000000,800.000000) scale(0.100000,-0.100000)"
fill="#CCCCCC" stroke="none">
<path d="M820 4000 l0 -3190 3195 0 3195 0 0 3190 0 3190 -3195 0 -3195 0 0
-3190z m5550 1775 l0 -1225 -332 2 -332 3 -125 161 c-69 88 -166 214 -216 279
-173 227 -238 291 -356 350 -107 55 -113 55 -830 55 -729 0 -746 -2 -866 -60
-112 -55 -135 -85 -373 -483 l-220 -367 0 -63 c1 -97 49 -178 123 -206 76 -29
203 -3 254 52 16 18 121 179 234 360 l204 327 253 0 254 0 -20 -32 c-110 -182
-281 -515 -345 -673 -84 -207 -103 -295 -127 -580 -6 -71 -15 -168 -20 -215
-5 -47 -16 -190 -25 -319 -8 -128 -17 -236 -20 -240 -2 -4 -219 -11 -482 -15
-518 -7 -587 -10 -678 -33 -134 -33 -266 -126 -348 -245 -36 -52 -113 -225
-105 -234 2 -2 436 -4 964 -4 1093 -1 1029 -5 1114 80 58 57 73 101 90 261 6
63 20 197 30 299 58 546 61 574 74 559 5 -6 127 -241 264 -511 67 -130 148
-287 180 -350 33 -62 100 -193 151 -290 321 -624 354 -687 390 -730 17 -20 58
-50 92 -67 l62 -31 259 0 c142 0 258 2 258 4 0 2 -77 161 -171 353 -94 191
-197 402 -229 468 -32 66 -117 242 -190 390 -210 429 -345 705 -446 912 l-93
193 53 112 c29 62 79 167 110 233 63 133 122 259 164 349 l28 59 124 -164
c185 -246 234 -303 287 -337 90 -58 128 -62 540 -62 l373 0 0 -1347 0 -1348
-202 -202 -202 -203 -353 0 c-194 0 -353 3 -352 8 1 4 105 106 231 227 l230
220 -243 3 c-284 3 -302 -1 -421 -81 -42 -29 -154 -127 -248 -219 l-172 -168
-1299 0 c-714 0 -1299 3 -1299 8 0 4 88 95 195 202 l195 195 0 422 0 423 -375
0 -375 0 6 28 c23 95 108 272 194 402 67 100 164 189 261 239 86 43 209 81
267 81 l32 0 0 2005 0 2005 1975 0 1975 0 0 -1225z"/>
<path d="M4850 6423 c-157 -26 -281 -122 -354 -273 -29 -62 -31 -71 -31 -186
l0 -121 42 -85 c84 -169 228 -257 419 -258 403 -1 609 482 335 782 -99 108
-266 165 -411 141z"/>
</g>
</svg>
